G04 #@! TF.FileFunction,Legend,Bot*
%FSLAX46Y46*%
G04 Gerber Fmt 4.6, Leading zero omitted, Abs format (unit mm)*
G04 Created by KiCad (PCBNEW (2016-07-11 BZR 6975, Git 98ad509)-product) date Sat Aug 13 17:34:52 2016*
%MOMM*%
%LPD*%
G01*
G04 APERTURE LIST*
%ADD10C,0.100000*%
%ADD11C,0.152400*%
%ADD12C,0.150000*%
%ADD13C,0.125000*%
G04 APERTURE END LIST*
D10*
X201930000Y-75565000D02*
X205740000Y-79375000D01*
X194310000Y-75565000D02*
X201930000Y-75565000D01*
X194310000Y-75565000D02*
X182880000Y-75565000D01*
X205740000Y-99695000D02*
X205740000Y-79375000D01*
X205740000Y-99695000D02*
X204470000Y-100965000D01*
X179070000Y-79375000D02*
X179070000Y-99695000D01*
X180340000Y-100965000D02*
X204470000Y-100965000D01*
X179070000Y-99695000D02*
X180340000Y-100965000D01*
X182880000Y-75565000D02*
X179070000Y-79375000D01*
D11*
X200406000Y-99695000D02*
X200406000Y-100457000D01*
X200406000Y-100457000D02*
X184404000Y-100457000D01*
X184404000Y-100457000D02*
X184404000Y-99695000D01*
D12*
X182115666Y-98926666D02*
X182115666Y-98593333D01*
X182449000Y-98560000D01*
X182415666Y-98593333D01*
X182382333Y-98660000D01*
X182382333Y-98826666D01*
X182415666Y-98893333D01*
X182449000Y-98926666D01*
X182515666Y-98960000D01*
X182682333Y-98960000D01*
X182749000Y-98926666D01*
X182782333Y-98893333D01*
X182815666Y-98826666D01*
X182815666Y-98660000D01*
X182782333Y-98593333D01*
X182749000Y-98560000D01*
X182115666Y-99160000D02*
X182815666Y-99393333D01*
X182115666Y-99626666D01*
D13*
X201927666Y-98026666D02*
X201927666Y-98460000D01*
X202194333Y-98226666D01*
X202194333Y-98326666D01*
X202227666Y-98393333D01*
X202261000Y-98426666D01*
X202327666Y-98460000D01*
X202494333Y-98460000D01*
X202561000Y-98426666D01*
X202594333Y-98393333D01*
X202627666Y-98326666D01*
X202627666Y-98126666D01*
X202594333Y-98060000D01*
X202561000Y-98026666D01*
X202561000Y-98760000D02*
X202594333Y-98793333D01*
X202627666Y-98760000D01*
X202594333Y-98726666D01*
X202561000Y-98760000D01*
X202627666Y-98760000D01*
X201927666Y-99026666D02*
X201927666Y-99460000D01*
X202194333Y-99226666D01*
X202194333Y-99326666D01*
X202227666Y-99393333D01*
X202261000Y-99426666D01*
X202327666Y-99460000D01*
X202494333Y-99460000D01*
X202561000Y-99426666D01*
X202594333Y-99393333D01*
X202627666Y-99326666D01*
X202627666Y-99126666D01*
X202594333Y-99060000D01*
X202561000Y-99026666D01*
X201927666Y-99660000D02*
X202627666Y-99893333D01*
X201927666Y-100126666D01*
X202627666Y-96386666D02*
X202627666Y-95986666D01*
X202627666Y-96186666D02*
X201927666Y-96186666D01*
X202027666Y-96120000D01*
X202094333Y-96053333D01*
X202127666Y-95986666D01*
X201927666Y-97020000D02*
X201927666Y-96686666D01*
X202261000Y-96653333D01*
X202227666Y-96686666D01*
X202194333Y-96753333D01*
X202194333Y-96920000D01*
X202227666Y-96986666D01*
X202261000Y-97020000D01*
X202327666Y-97053333D01*
X202494333Y-97053333D01*
X202561000Y-97020000D01*
X202594333Y-96986666D01*
X202627666Y-96920000D01*
X202627666Y-96753333D01*
X202594333Y-96686666D01*
X202561000Y-96653333D01*
X202627666Y-93846666D02*
X202627666Y-93446666D01*
X202627666Y-93646666D02*
X201927666Y-93646666D01*
X202027666Y-93580000D01*
X202094333Y-93513333D01*
X202127666Y-93446666D01*
X201927666Y-94080000D02*
X201927666Y-94513333D01*
X202194333Y-94280000D01*
X202194333Y-94380000D01*
X202227666Y-94446666D01*
X202261000Y-94480000D01*
X202327666Y-94513333D01*
X202494333Y-94513333D01*
X202561000Y-94480000D01*
X202594333Y-94446666D01*
X202627666Y-94380000D01*
X202627666Y-94180000D01*
X202594333Y-94113333D01*
X202561000Y-94080000D01*
X202627666Y-91306666D02*
X202627666Y-90906666D01*
X202627666Y-91106666D02*
X201927666Y-91106666D01*
X202027666Y-91040000D01*
X202094333Y-90973333D01*
X202127666Y-90906666D01*
X201994333Y-91573333D02*
X201961000Y-91606666D01*
X201927666Y-91673333D01*
X201927666Y-91840000D01*
X201961000Y-91906666D01*
X201994333Y-91940000D01*
X202061000Y-91973333D01*
X202127666Y-91973333D01*
X202227666Y-91940000D01*
X202627666Y-91540000D01*
X202627666Y-91973333D01*
X202627666Y-88766666D02*
X202627666Y-88366666D01*
X202627666Y-88566666D02*
X201927666Y-88566666D01*
X202027666Y-88500000D01*
X202094333Y-88433333D01*
X202127666Y-88366666D01*
X202161000Y-89366666D02*
X202627666Y-89366666D01*
X201894333Y-89200000D02*
X202394333Y-89033333D01*
X202394333Y-89466666D01*
X202627666Y-86226666D02*
X202627666Y-85826666D01*
X202627666Y-86026666D02*
X201927666Y-86026666D01*
X202027666Y-85960000D01*
X202094333Y-85893333D01*
X202127666Y-85826666D01*
X201927666Y-86826666D02*
X201927666Y-86693333D01*
X201961000Y-86626666D01*
X201994333Y-86593333D01*
X202094333Y-86526666D01*
X202227666Y-86493333D01*
X202494333Y-86493333D01*
X202561000Y-86526666D01*
X202594333Y-86560000D01*
X202627666Y-86626666D01*
X202627666Y-86760000D01*
X202594333Y-86826666D01*
X202561000Y-86860000D01*
X202494333Y-86893333D01*
X202327666Y-86893333D01*
X202261000Y-86860000D01*
X202227666Y-86826666D01*
X202194333Y-86760000D01*
X202194333Y-86626666D01*
X202227666Y-86560000D01*
X202261000Y-86526666D01*
X202327666Y-86493333D01*
X202427666Y-82953333D02*
X202427666Y-83286666D01*
X202627666Y-82886666D02*
X201927666Y-83120000D01*
X202627666Y-83353333D01*
X202627666Y-83586666D02*
X201927666Y-83586666D01*
X201927666Y-83753333D01*
X201961000Y-83853333D01*
X202027666Y-83920000D01*
X202094333Y-83953333D01*
X202227666Y-83986666D01*
X202327666Y-83986666D01*
X202461000Y-83953333D01*
X202527666Y-83920000D01*
X202594333Y-83853333D01*
X202627666Y-83753333D01*
X202627666Y-83586666D01*
X202561000Y-84686666D02*
X202594333Y-84653333D01*
X202627666Y-84553333D01*
X202627666Y-84486666D01*
X202594333Y-84386666D01*
X202527666Y-84320000D01*
X202461000Y-84286666D01*
X202327666Y-84253333D01*
X202227666Y-84253333D01*
X202094333Y-84286666D01*
X202027666Y-84320000D01*
X201961000Y-84386666D01*
X201927666Y-84486666D01*
X201927666Y-84553333D01*
X201961000Y-84653333D01*
X201994333Y-84686666D01*
X202627666Y-80896666D02*
X202294333Y-80663333D01*
X202627666Y-80496666D02*
X201927666Y-80496666D01*
X201927666Y-80763333D01*
X201961000Y-80830000D01*
X201994333Y-80863333D01*
X202061000Y-80896666D01*
X202161000Y-80896666D01*
X202227666Y-80863333D01*
X202261000Y-80830000D01*
X202294333Y-80763333D01*
X202294333Y-80496666D01*
X202594333Y-81163333D02*
X202627666Y-81263333D01*
X202627666Y-81430000D01*
X202594333Y-81496666D01*
X202561000Y-81530000D01*
X202494333Y-81563333D01*
X202427666Y-81563333D01*
X202361000Y-81530000D01*
X202327666Y-81496666D01*
X202294333Y-81430000D01*
X202261000Y-81296666D01*
X202227666Y-81230000D01*
X202194333Y-81196666D01*
X202127666Y-81163333D01*
X202061000Y-81163333D01*
X201994333Y-81196666D01*
X201961000Y-81230000D01*
X201927666Y-81296666D01*
X201927666Y-81463333D01*
X201961000Y-81563333D01*
X201927666Y-81763333D02*
X201927666Y-82163333D01*
X202627666Y-81963333D02*
X201927666Y-81963333D01*
X182149000Y-95986666D02*
X182115666Y-95920000D01*
X182115666Y-95820000D01*
X182149000Y-95720000D01*
X182215666Y-95653333D01*
X182282333Y-95620000D01*
X182415666Y-95586666D01*
X182515666Y-95586666D01*
X182649000Y-95620000D01*
X182715666Y-95653333D01*
X182782333Y-95720000D01*
X182815666Y-95820000D01*
X182815666Y-95886666D01*
X182782333Y-95986666D01*
X182749000Y-96020000D01*
X182515666Y-96020000D01*
X182515666Y-95886666D01*
X182815666Y-96320000D02*
X182115666Y-96320000D01*
X182815666Y-96720000D01*
X182115666Y-96720000D01*
X182815666Y-97053333D02*
X182115666Y-97053333D01*
X182115666Y-97220000D01*
X182149000Y-97320000D01*
X182215666Y-97386666D01*
X182282333Y-97420000D01*
X182415666Y-97453333D01*
X182515666Y-97453333D01*
X182649000Y-97420000D01*
X182715666Y-97386666D01*
X182782333Y-97320000D01*
X182815666Y-97220000D01*
X182815666Y-97053333D01*
X182115666Y-93613333D02*
X182115666Y-93680000D01*
X182149000Y-93746666D01*
X182182333Y-93780000D01*
X182249000Y-93813333D01*
X182382333Y-93846666D01*
X182549000Y-93846666D01*
X182682333Y-93813333D01*
X182749000Y-93780000D01*
X182782333Y-93746666D01*
X182815666Y-93680000D01*
X182815666Y-93613333D01*
X182782333Y-93546666D01*
X182749000Y-93513333D01*
X182682333Y-93480000D01*
X182549000Y-93446666D01*
X182382333Y-93446666D01*
X182249000Y-93480000D01*
X182182333Y-93513333D01*
X182149000Y-93546666D01*
X182115666Y-93613333D01*
X182182333Y-94113333D02*
X182149000Y-94146666D01*
X182115666Y-94213333D01*
X182115666Y-94380000D01*
X182149000Y-94446666D01*
X182182333Y-94480000D01*
X182249000Y-94513333D01*
X182315666Y-94513333D01*
X182415666Y-94480000D01*
X182815666Y-94080000D01*
X182815666Y-94513333D01*
X182115666Y-91406666D02*
X182115666Y-91473333D01*
X182149000Y-91540000D01*
X182182333Y-91573333D01*
X182249000Y-91606666D01*
X182382333Y-91640000D01*
X182549000Y-91640000D01*
X182682333Y-91606666D01*
X182749000Y-91573333D01*
X182782333Y-91540000D01*
X182815666Y-91473333D01*
X182815666Y-91406666D01*
X182782333Y-91340000D01*
X182749000Y-91306666D01*
X182682333Y-91273333D01*
X182549000Y-91240000D01*
X182382333Y-91240000D01*
X182249000Y-91273333D01*
X182182333Y-91306666D01*
X182149000Y-91340000D01*
X182115666Y-91406666D01*
X182115666Y-88533333D02*
X182115666Y-88600000D01*
X182149000Y-88666666D01*
X182182333Y-88700000D01*
X182249000Y-88733333D01*
X182382333Y-88766666D01*
X182549000Y-88766666D01*
X182682333Y-88733333D01*
X182749000Y-88700000D01*
X182782333Y-88666666D01*
X182815666Y-88600000D01*
X182815666Y-88533333D01*
X182782333Y-88466666D01*
X182749000Y-88433333D01*
X182682333Y-88400000D01*
X182549000Y-88366666D01*
X182382333Y-88366666D01*
X182249000Y-88400000D01*
X182182333Y-88433333D01*
X182149000Y-88466666D01*
X182115666Y-88533333D01*
X182349000Y-89366666D02*
X182815666Y-89366666D01*
X182082333Y-89200000D02*
X182582333Y-89033333D01*
X182582333Y-89466666D01*
X182115666Y-85993333D02*
X182115666Y-86060000D01*
X182149000Y-86126666D01*
X182182333Y-86160000D01*
X182249000Y-86193333D01*
X182382333Y-86226666D01*
X182549000Y-86226666D01*
X182682333Y-86193333D01*
X182749000Y-86160000D01*
X182782333Y-86126666D01*
X182815666Y-86060000D01*
X182815666Y-85993333D01*
X182782333Y-85926666D01*
X182749000Y-85893333D01*
X182682333Y-85860000D01*
X182549000Y-85826666D01*
X182382333Y-85826666D01*
X182249000Y-85860000D01*
X182182333Y-85893333D01*
X182149000Y-85926666D01*
X182115666Y-85993333D01*
X182115666Y-86860000D02*
X182115666Y-86526666D01*
X182449000Y-86493333D01*
X182415666Y-86526666D01*
X182382333Y-86593333D01*
X182382333Y-86760000D01*
X182415666Y-86826666D01*
X182449000Y-86860000D01*
X182515666Y-86893333D01*
X182682333Y-86893333D01*
X182749000Y-86860000D01*
X182782333Y-86826666D01*
X182815666Y-86760000D01*
X182815666Y-86593333D01*
X182782333Y-86526666D01*
X182749000Y-86493333D01*
X182815666Y-83353333D02*
X182482333Y-83120000D01*
X182815666Y-82953333D02*
X182115666Y-82953333D01*
X182115666Y-83220000D01*
X182149000Y-83286666D01*
X182182333Y-83320000D01*
X182249000Y-83353333D01*
X182349000Y-83353333D01*
X182415666Y-83320000D01*
X182449000Y-83286666D01*
X182482333Y-83220000D01*
X182482333Y-82953333D01*
X182115666Y-83586666D02*
X182815666Y-84053333D01*
X182115666Y-84053333D02*
X182815666Y-83586666D01*
X182815666Y-84320000D02*
X182115666Y-84320000D01*
X182115666Y-84486666D01*
X182149000Y-84586666D01*
X182215666Y-84653333D01*
X182282333Y-84686666D01*
X182415666Y-84720000D01*
X182515666Y-84720000D01*
X182649000Y-84686666D01*
X182715666Y-84653333D01*
X182782333Y-84586666D01*
X182815666Y-84486666D01*
X182815666Y-84320000D01*
X182115666Y-80396666D02*
X182115666Y-80796666D01*
X182815666Y-80596666D02*
X182115666Y-80596666D01*
X182115666Y-80963333D02*
X182815666Y-81430000D01*
X182115666Y-81430000D02*
X182815666Y-80963333D01*
X182815666Y-81696666D02*
X182115666Y-81696666D01*
X182115666Y-81863333D01*
X182149000Y-81963333D01*
X182215666Y-82030000D01*
X182282333Y-82063333D01*
X182415666Y-82096666D01*
X182515666Y-82096666D01*
X182649000Y-82063333D01*
X182715666Y-82030000D01*
X182782333Y-81963333D01*
X182815666Y-81863333D01*
X182815666Y-81696666D01*
D12*
X195159904Y-85764571D02*
X194826571Y-85764571D01*
X194683714Y-86288380D02*
X195159904Y-86288380D01*
X195159904Y-85288380D01*
X194683714Y-85288380D01*
X194302761Y-86240761D02*
X194159904Y-86288380D01*
X193921809Y-86288380D01*
X193826571Y-86240761D01*
X193778952Y-86193142D01*
X193731333Y-86097904D01*
X193731333Y-86002666D01*
X193778952Y-85907428D01*
X193826571Y-85859809D01*
X193921809Y-85812190D01*
X194112285Y-85764571D01*
X194207523Y-85716952D01*
X194255142Y-85669333D01*
X194302761Y-85574095D01*
X194302761Y-85478857D01*
X194255142Y-85383619D01*
X194207523Y-85336000D01*
X194112285Y-85288380D01*
X193874190Y-85288380D01*
X193731333Y-85336000D01*
X193302761Y-86288380D02*
X193302761Y-85288380D01*
X192921809Y-85288380D01*
X192826571Y-85336000D01*
X192778952Y-85383619D01*
X192731333Y-85478857D01*
X192731333Y-85621714D01*
X192778952Y-85716952D01*
X192826571Y-85764571D01*
X192921809Y-85812190D01*
X193302761Y-85812190D01*
X192302761Y-85907428D02*
X191540857Y-85907428D01*
X190540857Y-86288380D02*
X191112285Y-86288380D01*
X190826571Y-86288380D02*
X190826571Y-85288380D01*
X190921809Y-85431238D01*
X191017047Y-85526476D01*
X191112285Y-85574095D01*
X190159904Y-85383619D02*
X190112285Y-85336000D01*
X190017047Y-85288380D01*
X189778952Y-85288380D01*
X189683714Y-85336000D01*
X189636095Y-85383619D01*
X189588476Y-85478857D01*
X189588476Y-85574095D01*
X189636095Y-85716952D01*
X190207523Y-86288380D01*
X189588476Y-86288380D01*
M02*
