M48
;DRILL file {KiCad (2016-07-11 BZR 6975, Git 98ad509)-product} date Sat Aug 13 17:32:40 2016
;FORMAT={-:-/ absolute / inch / decimal}
FMAT,2
INCH,TZ
T1C0.016
T2C0.040
T3C0.031
%
G90
G05
M72
T1
X7.345Y-3.695
X7.375Y-3.725
X7.435Y-3.32
X7.435Y-3.425
X7.435Y-3.52
X7.49Y-3.67
X7.575Y-3.84
X7.62Y-3.84
X7.665Y-3.805
X7.67Y-3.705
X7.67Y-3.755
X7.7Y-3.625
X7.95Y-3.85
T2
X7.125Y-3.2
X7.125Y-3.3
X7.125Y-3.4
X7.125Y-3.5
X7.125Y-3.6
X7.125Y-3.7
X7.125Y-3.8
X7.125Y-3.9
X8.025Y-3.2
X8.025Y-3.3
X8.025Y-3.4
X8.025Y-3.5
X8.025Y-3.6
X8.025Y-3.7
X8.025Y-3.8
X8.025Y-3.9
T3
X7.375Y-3.875
X7.775Y-3.875
T0
M30
