G04 #@! TF.FileFunction,Soldermask,Top*
%FSLAX46Y46*%
G04 Gerber Fmt 4.6, Leading zero omitted, Abs format (unit mm)*
G04 Created by KiCad (PCBNEW (2016-07-11 BZR 6975, Git 98ad509)-product) date Sat Aug 13 17:34:52 2016*
%MOMM*%
%LPD*%
G01*
G04 APERTURE LIST*
%ADD10C,0.100000*%
%ADD11C,1.800000*%
%ADD12R,1.597660X1.800860*%
%ADD13R,1.000000X1.600000*%
%ADD14R,0.650000X1.060000*%
%ADD15R,0.900000X1.700000*%
%ADD16C,0.800000*%
G04 APERTURE END LIST*
D10*
X201930000Y-75565000D02*
X205740000Y-79375000D01*
X194310000Y-75565000D02*
X201930000Y-75565000D01*
X194310000Y-75565000D02*
X182880000Y-75565000D01*
X205740000Y-99695000D02*
X205740000Y-79375000D01*
X205740000Y-99695000D02*
X204470000Y-100965000D01*
X179070000Y-79375000D02*
X179070000Y-99695000D01*
X180340000Y-100965000D02*
X204470000Y-100965000D01*
X179070000Y-99695000D02*
X180340000Y-100965000D01*
X182880000Y-75565000D02*
X179070000Y-79375000D01*
D11*
X180975000Y-81280000D03*
X180975000Y-83820000D03*
X180975000Y-86360000D03*
X180975000Y-88900000D03*
X180975000Y-91440000D03*
X180975000Y-93980000D03*
X180975000Y-96520000D03*
X180975000Y-99060000D03*
X203835000Y-99060000D03*
X203835000Y-96520000D03*
X203835000Y-93980000D03*
X203835000Y-91440000D03*
X203835000Y-88900000D03*
X203835000Y-86360000D03*
X203835000Y-83820000D03*
X203835000Y-81280000D03*
D12*
X194459860Y-84455000D03*
X191620140Y-84455000D03*
X194459860Y-86995000D03*
X191620140Y-86995000D03*
D13*
X191540000Y-90170000D03*
X194540000Y-90170000D03*
X197255000Y-90170000D03*
X200255000Y-90170000D03*
D14*
X191455000Y-95715000D03*
X192405000Y-95715000D03*
X193355000Y-95715000D03*
X193355000Y-93515000D03*
X191455000Y-93515000D03*
D15*
X187505000Y-84455000D03*
X184605000Y-84455000D03*
X184605000Y-86995000D03*
X187505000Y-86995000D03*
X184605000Y-89535000D03*
X187505000Y-89535000D03*
X184605000Y-92075000D03*
X187505000Y-92075000D03*
X197305000Y-92710000D03*
X200205000Y-92710000D03*
X197305000Y-84455000D03*
X200205000Y-84455000D03*
X197305000Y-86995000D03*
X200205000Y-86995000D03*
X199185000Y-98425000D03*
X195785000Y-98425000D03*
D16*
X197485000Y-98425000D03*
D15*
X185625000Y-98425000D03*
X189025000Y-98425000D03*
D16*
X187325000Y-98425000D03*
M02*
