G04 #@! TF.FileFunction,Soldermask,Bot*
%FSLAX46Y46*%
G04 Gerber Fmt 4.6, Leading zero omitted, Abs format (unit mm)*
G04 Created by KiCad (PCBNEW (2016-07-11 BZR 6975, Git 98ad509)-product) date Sat Aug 13 17:34:52 2016*
%MOMM*%
%LPD*%
G01*
G04 APERTURE LIST*
%ADD10C,0.100000*%
%ADD11C,1.800000*%
%ADD12C,0.800000*%
G04 APERTURE END LIST*
D10*
X201930000Y-75565000D02*
X205740000Y-79375000D01*
X194310000Y-75565000D02*
X201930000Y-75565000D01*
X194310000Y-75565000D02*
X182880000Y-75565000D01*
X205740000Y-99695000D02*
X205740000Y-79375000D01*
X205740000Y-99695000D02*
X204470000Y-100965000D01*
X179070000Y-79375000D02*
X179070000Y-99695000D01*
X180340000Y-100965000D02*
X204470000Y-100965000D01*
X179070000Y-99695000D02*
X180340000Y-100965000D01*
X182880000Y-75565000D02*
X179070000Y-79375000D01*
D11*
X180975000Y-81280000D03*
X180975000Y-83820000D03*
X180975000Y-86360000D03*
X180975000Y-88900000D03*
X180975000Y-91440000D03*
X180975000Y-93980000D03*
X180975000Y-96520000D03*
X180975000Y-99060000D03*
X203835000Y-99060000D03*
X203835000Y-96520000D03*
X203835000Y-93980000D03*
X203835000Y-91440000D03*
X203835000Y-88900000D03*
X203835000Y-86360000D03*
X203835000Y-83820000D03*
X203835000Y-81280000D03*
D10*
G36*
X201091955Y-84287324D02*
X201118650Y-84291284D01*
X201144828Y-84297841D01*
X201170238Y-84306933D01*
X201194634Y-84318472D01*
X201217782Y-84332346D01*
X201239458Y-84348422D01*
X201259454Y-84366546D01*
X201277578Y-84386542D01*
X201293654Y-84408218D01*
X201307528Y-84431366D01*
X201319067Y-84455762D01*
X201328159Y-84481172D01*
X201334716Y-84507350D01*
X201338676Y-84534045D01*
X201340000Y-84561000D01*
X201340000Y-85111000D01*
X201338676Y-85137955D01*
X201334716Y-85164650D01*
X201328159Y-85190828D01*
X201319067Y-85216238D01*
X201307528Y-85240634D01*
X201293654Y-85263782D01*
X201277578Y-85285458D01*
X201259454Y-85305454D01*
X201239458Y-85323578D01*
X201217782Y-85339654D01*
X201194634Y-85353528D01*
X201170238Y-85365067D01*
X201144828Y-85374159D01*
X201118650Y-85380716D01*
X201091955Y-85384676D01*
X201065000Y-85386000D01*
X199115000Y-85386000D01*
X199088045Y-85384676D01*
X199061350Y-85380716D01*
X199035172Y-85374159D01*
X199009762Y-85365067D01*
X198985366Y-85353528D01*
X198962218Y-85339654D01*
X198940542Y-85323578D01*
X198920546Y-85305454D01*
X198902422Y-85285458D01*
X198886346Y-85263782D01*
X198872472Y-85240634D01*
X198860933Y-85216238D01*
X198851841Y-85190828D01*
X198845284Y-85164650D01*
X198841324Y-85137955D01*
X198840000Y-85111000D01*
X198840000Y-84561000D01*
X198841324Y-84534045D01*
X198845284Y-84507350D01*
X198851841Y-84481172D01*
X198860933Y-84455762D01*
X198872472Y-84431366D01*
X198886346Y-84408218D01*
X198902422Y-84386542D01*
X198920546Y-84366546D01*
X198940542Y-84348422D01*
X198962218Y-84332346D01*
X198985366Y-84318472D01*
X199009762Y-84306933D01*
X199035172Y-84297841D01*
X199061350Y-84291284D01*
X199088045Y-84287324D01*
X199115000Y-84286000D01*
X201065000Y-84286000D01*
X201091955Y-84287324D01*
X201091955Y-84287324D01*
G37*
G36*
X201091955Y-86287324D02*
X201118650Y-86291284D01*
X201144828Y-86297841D01*
X201170238Y-86306933D01*
X201194634Y-86318472D01*
X201217782Y-86332346D01*
X201239458Y-86348422D01*
X201259454Y-86366546D01*
X201277578Y-86386542D01*
X201293654Y-86408218D01*
X201307528Y-86431366D01*
X201319067Y-86455762D01*
X201328159Y-86481172D01*
X201334716Y-86507350D01*
X201338676Y-86534045D01*
X201340000Y-86561000D01*
X201340000Y-87111000D01*
X201338676Y-87137955D01*
X201334716Y-87164650D01*
X201328159Y-87190828D01*
X201319067Y-87216238D01*
X201307528Y-87240634D01*
X201293654Y-87263782D01*
X201277578Y-87285458D01*
X201259454Y-87305454D01*
X201239458Y-87323578D01*
X201217782Y-87339654D01*
X201194634Y-87353528D01*
X201170238Y-87365067D01*
X201144828Y-87374159D01*
X201118650Y-87380716D01*
X201091955Y-87384676D01*
X201065000Y-87386000D01*
X199115000Y-87386000D01*
X199088045Y-87384676D01*
X199061350Y-87380716D01*
X199035172Y-87374159D01*
X199009762Y-87365067D01*
X198985366Y-87353528D01*
X198962218Y-87339654D01*
X198940542Y-87323578D01*
X198920546Y-87305454D01*
X198902422Y-87285458D01*
X198886346Y-87263782D01*
X198872472Y-87240634D01*
X198860933Y-87216238D01*
X198851841Y-87190828D01*
X198845284Y-87164650D01*
X198841324Y-87137955D01*
X198840000Y-87111000D01*
X198840000Y-86561000D01*
X198841324Y-86534045D01*
X198845284Y-86507350D01*
X198851841Y-86481172D01*
X198860933Y-86455762D01*
X198872472Y-86431366D01*
X198886346Y-86408218D01*
X198902422Y-86386542D01*
X198920546Y-86366546D01*
X198940542Y-86348422D01*
X198962218Y-86332346D01*
X198985366Y-86318472D01*
X199009762Y-86306933D01*
X199035172Y-86297841D01*
X199061350Y-86291284D01*
X199088045Y-86287324D01*
X199115000Y-86286000D01*
X201065000Y-86286000D01*
X201091955Y-86287324D01*
X201091955Y-86287324D01*
G37*
G36*
X201091955Y-88287324D02*
X201118650Y-88291284D01*
X201144828Y-88297841D01*
X201170238Y-88306933D01*
X201194634Y-88318472D01*
X201217782Y-88332346D01*
X201239458Y-88348422D01*
X201259454Y-88366546D01*
X201277578Y-88386542D01*
X201293654Y-88408218D01*
X201307528Y-88431366D01*
X201319067Y-88455762D01*
X201328159Y-88481172D01*
X201334716Y-88507350D01*
X201338676Y-88534045D01*
X201340000Y-88561000D01*
X201340000Y-89111000D01*
X201338676Y-89137955D01*
X201334716Y-89164650D01*
X201328159Y-89190828D01*
X201319067Y-89216238D01*
X201307528Y-89240634D01*
X201293654Y-89263782D01*
X201277578Y-89285458D01*
X201259454Y-89305454D01*
X201239458Y-89323578D01*
X201217782Y-89339654D01*
X201194634Y-89353528D01*
X201170238Y-89365067D01*
X201144828Y-89374159D01*
X201118650Y-89380716D01*
X201091955Y-89384676D01*
X201065000Y-89386000D01*
X199115000Y-89386000D01*
X199088045Y-89384676D01*
X199061350Y-89380716D01*
X199035172Y-89374159D01*
X199009762Y-89365067D01*
X198985366Y-89353528D01*
X198962218Y-89339654D01*
X198940542Y-89323578D01*
X198920546Y-89305454D01*
X198902422Y-89285458D01*
X198886346Y-89263782D01*
X198872472Y-89240634D01*
X198860933Y-89216238D01*
X198851841Y-89190828D01*
X198845284Y-89164650D01*
X198841324Y-89137955D01*
X198840000Y-89111000D01*
X198840000Y-88561000D01*
X198841324Y-88534045D01*
X198845284Y-88507350D01*
X198851841Y-88481172D01*
X198860933Y-88455762D01*
X198872472Y-88431366D01*
X198886346Y-88408218D01*
X198902422Y-88386542D01*
X198920546Y-88366546D01*
X198940542Y-88348422D01*
X198962218Y-88332346D01*
X198985366Y-88318472D01*
X199009762Y-88306933D01*
X199035172Y-88297841D01*
X199061350Y-88291284D01*
X199088045Y-88287324D01*
X199115000Y-88286000D01*
X201065000Y-88286000D01*
X201091955Y-88287324D01*
X201091955Y-88287324D01*
G37*
G36*
X201091955Y-90287324D02*
X201118650Y-90291284D01*
X201144828Y-90297841D01*
X201170238Y-90306933D01*
X201194634Y-90318472D01*
X201217782Y-90332346D01*
X201239458Y-90348422D01*
X201259454Y-90366546D01*
X201277578Y-90386542D01*
X201293654Y-90408218D01*
X201307528Y-90431366D01*
X201319067Y-90455762D01*
X201328159Y-90481172D01*
X201334716Y-90507350D01*
X201338676Y-90534045D01*
X201340000Y-90561000D01*
X201340000Y-91111000D01*
X201338676Y-91137955D01*
X201334716Y-91164650D01*
X201328159Y-91190828D01*
X201319067Y-91216238D01*
X201307528Y-91240634D01*
X201293654Y-91263782D01*
X201277578Y-91285458D01*
X201259454Y-91305454D01*
X201239458Y-91323578D01*
X201217782Y-91339654D01*
X201194634Y-91353528D01*
X201170238Y-91365067D01*
X201144828Y-91374159D01*
X201118650Y-91380716D01*
X201091955Y-91384676D01*
X201065000Y-91386000D01*
X199115000Y-91386000D01*
X199088045Y-91384676D01*
X199061350Y-91380716D01*
X199035172Y-91374159D01*
X199009762Y-91365067D01*
X198985366Y-91353528D01*
X198962218Y-91339654D01*
X198940542Y-91323578D01*
X198920546Y-91305454D01*
X198902422Y-91285458D01*
X198886346Y-91263782D01*
X198872472Y-91240634D01*
X198860933Y-91216238D01*
X198851841Y-91190828D01*
X198845284Y-91164650D01*
X198841324Y-91137955D01*
X198840000Y-91111000D01*
X198840000Y-90561000D01*
X198841324Y-90534045D01*
X198845284Y-90507350D01*
X198851841Y-90481172D01*
X198860933Y-90455762D01*
X198872472Y-90431366D01*
X198886346Y-90408218D01*
X198902422Y-90386542D01*
X198920546Y-90366546D01*
X198940542Y-90348422D01*
X198962218Y-90332346D01*
X198985366Y-90318472D01*
X199009762Y-90306933D01*
X199035172Y-90297841D01*
X199061350Y-90291284D01*
X199088045Y-90287324D01*
X199115000Y-90286000D01*
X201065000Y-90286000D01*
X201091955Y-90287324D01*
X201091955Y-90287324D01*
G37*
G36*
X201091955Y-92287324D02*
X201118650Y-92291284D01*
X201144828Y-92297841D01*
X201170238Y-92306933D01*
X201194634Y-92318472D01*
X201217782Y-92332346D01*
X201239458Y-92348422D01*
X201259454Y-92366546D01*
X201277578Y-92386542D01*
X201293654Y-92408218D01*
X201307528Y-92431366D01*
X201319067Y-92455762D01*
X201328159Y-92481172D01*
X201334716Y-92507350D01*
X201338676Y-92534045D01*
X201340000Y-92561000D01*
X201340000Y-93111000D01*
X201338676Y-93137955D01*
X201334716Y-93164650D01*
X201328159Y-93190828D01*
X201319067Y-93216238D01*
X201307528Y-93240634D01*
X201293654Y-93263782D01*
X201277578Y-93285458D01*
X201259454Y-93305454D01*
X201239458Y-93323578D01*
X201217782Y-93339654D01*
X201194634Y-93353528D01*
X201170238Y-93365067D01*
X201144828Y-93374159D01*
X201118650Y-93380716D01*
X201091955Y-93384676D01*
X201065000Y-93386000D01*
X199115000Y-93386000D01*
X199088045Y-93384676D01*
X199061350Y-93380716D01*
X199035172Y-93374159D01*
X199009762Y-93365067D01*
X198985366Y-93353528D01*
X198962218Y-93339654D01*
X198940542Y-93323578D01*
X198920546Y-93305454D01*
X198902422Y-93285458D01*
X198886346Y-93263782D01*
X198872472Y-93240634D01*
X198860933Y-93216238D01*
X198851841Y-93190828D01*
X198845284Y-93164650D01*
X198841324Y-93137955D01*
X198840000Y-93111000D01*
X198840000Y-92561000D01*
X198841324Y-92534045D01*
X198845284Y-92507350D01*
X198851841Y-92481172D01*
X198860933Y-92455762D01*
X198872472Y-92431366D01*
X198886346Y-92408218D01*
X198902422Y-92386542D01*
X198920546Y-92366546D01*
X198940542Y-92348422D01*
X198962218Y-92332346D01*
X198985366Y-92318472D01*
X199009762Y-92306933D01*
X199035172Y-92297841D01*
X199061350Y-92291284D01*
X199088045Y-92287324D01*
X199115000Y-92286000D01*
X201065000Y-92286000D01*
X201091955Y-92287324D01*
X201091955Y-92287324D01*
G37*
G36*
X201091955Y-94287324D02*
X201118650Y-94291284D01*
X201144828Y-94297841D01*
X201170238Y-94306933D01*
X201194634Y-94318472D01*
X201217782Y-94332346D01*
X201239458Y-94348422D01*
X201259454Y-94366546D01*
X201277578Y-94386542D01*
X201293654Y-94408218D01*
X201307528Y-94431366D01*
X201319067Y-94455762D01*
X201328159Y-94481172D01*
X201334716Y-94507350D01*
X201338676Y-94534045D01*
X201340000Y-94561000D01*
X201340000Y-95111000D01*
X201338676Y-95137955D01*
X201334716Y-95164650D01*
X201328159Y-95190828D01*
X201319067Y-95216238D01*
X201307528Y-95240634D01*
X201293654Y-95263782D01*
X201277578Y-95285458D01*
X201259454Y-95305454D01*
X201239458Y-95323578D01*
X201217782Y-95339654D01*
X201194634Y-95353528D01*
X201170238Y-95365067D01*
X201144828Y-95374159D01*
X201118650Y-95380716D01*
X201091955Y-95384676D01*
X201065000Y-95386000D01*
X199115000Y-95386000D01*
X199088045Y-95384676D01*
X199061350Y-95380716D01*
X199035172Y-95374159D01*
X199009762Y-95365067D01*
X198985366Y-95353528D01*
X198962218Y-95339654D01*
X198940542Y-95323578D01*
X198920546Y-95305454D01*
X198902422Y-95285458D01*
X198886346Y-95263782D01*
X198872472Y-95240634D01*
X198860933Y-95216238D01*
X198851841Y-95190828D01*
X198845284Y-95164650D01*
X198841324Y-95137955D01*
X198840000Y-95111000D01*
X198840000Y-94561000D01*
X198841324Y-94534045D01*
X198845284Y-94507350D01*
X198851841Y-94481172D01*
X198860933Y-94455762D01*
X198872472Y-94431366D01*
X198886346Y-94408218D01*
X198902422Y-94386542D01*
X198920546Y-94366546D01*
X198940542Y-94348422D01*
X198962218Y-94332346D01*
X198985366Y-94318472D01*
X199009762Y-94306933D01*
X199035172Y-94297841D01*
X199061350Y-94291284D01*
X199088045Y-94287324D01*
X199115000Y-94286000D01*
X201065000Y-94286000D01*
X201091955Y-94287324D01*
X201091955Y-94287324D01*
G37*
G36*
X201091955Y-96287324D02*
X201118650Y-96291284D01*
X201144828Y-96297841D01*
X201170238Y-96306933D01*
X201194634Y-96318472D01*
X201217782Y-96332346D01*
X201239458Y-96348422D01*
X201259454Y-96366546D01*
X201277578Y-96386542D01*
X201293654Y-96408218D01*
X201307528Y-96431366D01*
X201319067Y-96455762D01*
X201328159Y-96481172D01*
X201334716Y-96507350D01*
X201338676Y-96534045D01*
X201340000Y-96561000D01*
X201340000Y-97111000D01*
X201338676Y-97137955D01*
X201334716Y-97164650D01*
X201328159Y-97190828D01*
X201319067Y-97216238D01*
X201307528Y-97240634D01*
X201293654Y-97263782D01*
X201277578Y-97285458D01*
X201259454Y-97305454D01*
X201239458Y-97323578D01*
X201217782Y-97339654D01*
X201194634Y-97353528D01*
X201170238Y-97365067D01*
X201144828Y-97374159D01*
X201118650Y-97380716D01*
X201091955Y-97384676D01*
X201065000Y-97386000D01*
X199115000Y-97386000D01*
X199088045Y-97384676D01*
X199061350Y-97380716D01*
X199035172Y-97374159D01*
X199009762Y-97365067D01*
X198985366Y-97353528D01*
X198962218Y-97339654D01*
X198940542Y-97323578D01*
X198920546Y-97305454D01*
X198902422Y-97285458D01*
X198886346Y-97263782D01*
X198872472Y-97240634D01*
X198860933Y-97216238D01*
X198851841Y-97190828D01*
X198845284Y-97164650D01*
X198841324Y-97137955D01*
X198840000Y-97111000D01*
X198840000Y-96561000D01*
X198841324Y-96534045D01*
X198845284Y-96507350D01*
X198851841Y-96481172D01*
X198860933Y-96455762D01*
X198872472Y-96431366D01*
X198886346Y-96408218D01*
X198902422Y-96386542D01*
X198920546Y-96366546D01*
X198940542Y-96348422D01*
X198962218Y-96332346D01*
X198985366Y-96318472D01*
X199009762Y-96306933D01*
X199035172Y-96297841D01*
X199061350Y-96291284D01*
X199088045Y-96287324D01*
X199115000Y-96286000D01*
X201065000Y-96286000D01*
X201091955Y-96287324D01*
X201091955Y-96287324D01*
G37*
G36*
X201091955Y-98287324D02*
X201118650Y-98291284D01*
X201144828Y-98297841D01*
X201170238Y-98306933D01*
X201194634Y-98318472D01*
X201217782Y-98332346D01*
X201239458Y-98348422D01*
X201259454Y-98366546D01*
X201277578Y-98386542D01*
X201293654Y-98408218D01*
X201307528Y-98431366D01*
X201319067Y-98455762D01*
X201328159Y-98481172D01*
X201334716Y-98507350D01*
X201338676Y-98534045D01*
X201340000Y-98561000D01*
X201340000Y-99111000D01*
X201338676Y-99137955D01*
X201334716Y-99164650D01*
X201328159Y-99190828D01*
X201319067Y-99216238D01*
X201307528Y-99240634D01*
X201293654Y-99263782D01*
X201277578Y-99285458D01*
X201259454Y-99305454D01*
X201239458Y-99323578D01*
X201217782Y-99339654D01*
X201194634Y-99353528D01*
X201170238Y-99365067D01*
X201144828Y-99374159D01*
X201118650Y-99380716D01*
X201091955Y-99384676D01*
X201065000Y-99386000D01*
X199115000Y-99386000D01*
X199088045Y-99384676D01*
X199061350Y-99380716D01*
X199035172Y-99374159D01*
X199009762Y-99365067D01*
X198985366Y-99353528D01*
X198962218Y-99339654D01*
X198940542Y-99323578D01*
X198920546Y-99305454D01*
X198902422Y-99285458D01*
X198886346Y-99263782D01*
X198872472Y-99240634D01*
X198860933Y-99216238D01*
X198851841Y-99190828D01*
X198845284Y-99164650D01*
X198841324Y-99137955D01*
X198840000Y-99111000D01*
X198840000Y-98561000D01*
X198841324Y-98534045D01*
X198845284Y-98507350D01*
X198851841Y-98481172D01*
X198860933Y-98455762D01*
X198872472Y-98431366D01*
X198886346Y-98408218D01*
X198902422Y-98386542D01*
X198920546Y-98366546D01*
X198940542Y-98348422D01*
X198962218Y-98332346D01*
X198985366Y-98318472D01*
X199009762Y-98306933D01*
X199035172Y-98297841D01*
X199061350Y-98291284D01*
X199088045Y-98287324D01*
X199115000Y-98286000D01*
X201065000Y-98286000D01*
X201091955Y-98287324D01*
X201091955Y-98287324D01*
G37*
G36*
X185691955Y-98287324D02*
X185718650Y-98291284D01*
X185744828Y-98297841D01*
X185770238Y-98306933D01*
X185794634Y-98318472D01*
X185817782Y-98332346D01*
X185839458Y-98348422D01*
X185859454Y-98366546D01*
X185877578Y-98386542D01*
X185893654Y-98408218D01*
X185907528Y-98431366D01*
X185919067Y-98455762D01*
X185928159Y-98481172D01*
X185934716Y-98507350D01*
X185938676Y-98534045D01*
X185940000Y-98561000D01*
X185940000Y-99111000D01*
X185938676Y-99137955D01*
X185934716Y-99164650D01*
X185928159Y-99190828D01*
X185919067Y-99216238D01*
X185907528Y-99240634D01*
X185893654Y-99263782D01*
X185877578Y-99285458D01*
X185859454Y-99305454D01*
X185839458Y-99323578D01*
X185817782Y-99339654D01*
X185794634Y-99353528D01*
X185770238Y-99365067D01*
X185744828Y-99374159D01*
X185718650Y-99380716D01*
X185691955Y-99384676D01*
X185665000Y-99386000D01*
X183715000Y-99386000D01*
X183688045Y-99384676D01*
X183661350Y-99380716D01*
X183635172Y-99374159D01*
X183609762Y-99365067D01*
X183585366Y-99353528D01*
X183562218Y-99339654D01*
X183540542Y-99323578D01*
X183520546Y-99305454D01*
X183502422Y-99285458D01*
X183486346Y-99263782D01*
X183472472Y-99240634D01*
X183460933Y-99216238D01*
X183451841Y-99190828D01*
X183445284Y-99164650D01*
X183441324Y-99137955D01*
X183440000Y-99111000D01*
X183440000Y-98561000D01*
X183441324Y-98534045D01*
X183445284Y-98507350D01*
X183451841Y-98481172D01*
X183460933Y-98455762D01*
X183472472Y-98431366D01*
X183486346Y-98408218D01*
X183502422Y-98386542D01*
X183520546Y-98366546D01*
X183540542Y-98348422D01*
X183562218Y-98332346D01*
X183585366Y-98318472D01*
X183609762Y-98306933D01*
X183635172Y-98297841D01*
X183661350Y-98291284D01*
X183688045Y-98287324D01*
X183715000Y-98286000D01*
X185665000Y-98286000D01*
X185691955Y-98287324D01*
X185691955Y-98287324D01*
G37*
G36*
X185791955Y-96287324D02*
X185818650Y-96291284D01*
X185844828Y-96297841D01*
X185870238Y-96306933D01*
X185894634Y-96318472D01*
X185917782Y-96332346D01*
X185939458Y-96348422D01*
X185959454Y-96366546D01*
X185977578Y-96386542D01*
X185993654Y-96408218D01*
X186007528Y-96431366D01*
X186019067Y-96455762D01*
X186028159Y-96481172D01*
X186034716Y-96507350D01*
X186038676Y-96534045D01*
X186040000Y-96561000D01*
X186040000Y-97111000D01*
X186038676Y-97137955D01*
X186034716Y-97164650D01*
X186028159Y-97190828D01*
X186019067Y-97216238D01*
X186007528Y-97240634D01*
X185993654Y-97263782D01*
X185977578Y-97285458D01*
X185959454Y-97305454D01*
X185939458Y-97323578D01*
X185917782Y-97339654D01*
X185894634Y-97353528D01*
X185870238Y-97365067D01*
X185844828Y-97374159D01*
X185818650Y-97380716D01*
X185791955Y-97384676D01*
X185765000Y-97386000D01*
X183815000Y-97386000D01*
X183788045Y-97384676D01*
X183761350Y-97380716D01*
X183735172Y-97374159D01*
X183709762Y-97365067D01*
X183685366Y-97353528D01*
X183662218Y-97339654D01*
X183640542Y-97323578D01*
X183620546Y-97305454D01*
X183602422Y-97285458D01*
X183586346Y-97263782D01*
X183572472Y-97240634D01*
X183560933Y-97216238D01*
X183551841Y-97190828D01*
X183545284Y-97164650D01*
X183541324Y-97137955D01*
X183540000Y-97111000D01*
X183540000Y-96561000D01*
X183541324Y-96534045D01*
X183545284Y-96507350D01*
X183551841Y-96481172D01*
X183560933Y-96455762D01*
X183572472Y-96431366D01*
X183586346Y-96408218D01*
X183602422Y-96386542D01*
X183620546Y-96366546D01*
X183640542Y-96348422D01*
X183662218Y-96332346D01*
X183685366Y-96318472D01*
X183709762Y-96306933D01*
X183735172Y-96297841D01*
X183761350Y-96291284D01*
X183788045Y-96287324D01*
X183815000Y-96286000D01*
X185765000Y-96286000D01*
X185791955Y-96287324D01*
X185791955Y-96287324D01*
G37*
G36*
X185691955Y-94287324D02*
X185718650Y-94291284D01*
X185744828Y-94297841D01*
X185770238Y-94306933D01*
X185794634Y-94318472D01*
X185817782Y-94332346D01*
X185839458Y-94348422D01*
X185859454Y-94366546D01*
X185877578Y-94386542D01*
X185893654Y-94408218D01*
X185907528Y-94431366D01*
X185919067Y-94455762D01*
X185928159Y-94481172D01*
X185934716Y-94507350D01*
X185938676Y-94534045D01*
X185940000Y-94561000D01*
X185940000Y-95111000D01*
X185938676Y-95137955D01*
X185934716Y-95164650D01*
X185928159Y-95190828D01*
X185919067Y-95216238D01*
X185907528Y-95240634D01*
X185893654Y-95263782D01*
X185877578Y-95285458D01*
X185859454Y-95305454D01*
X185839458Y-95323578D01*
X185817782Y-95339654D01*
X185794634Y-95353528D01*
X185770238Y-95365067D01*
X185744828Y-95374159D01*
X185718650Y-95380716D01*
X185691955Y-95384676D01*
X185665000Y-95386000D01*
X183715000Y-95386000D01*
X183688045Y-95384676D01*
X183661350Y-95380716D01*
X183635172Y-95374159D01*
X183609762Y-95365067D01*
X183585366Y-95353528D01*
X183562218Y-95339654D01*
X183540542Y-95323578D01*
X183520546Y-95305454D01*
X183502422Y-95285458D01*
X183486346Y-95263782D01*
X183472472Y-95240634D01*
X183460933Y-95216238D01*
X183451841Y-95190828D01*
X183445284Y-95164650D01*
X183441324Y-95137955D01*
X183440000Y-95111000D01*
X183440000Y-94561000D01*
X183441324Y-94534045D01*
X183445284Y-94507350D01*
X183451841Y-94481172D01*
X183460933Y-94455762D01*
X183472472Y-94431366D01*
X183486346Y-94408218D01*
X183502422Y-94386542D01*
X183520546Y-94366546D01*
X183540542Y-94348422D01*
X183562218Y-94332346D01*
X183585366Y-94318472D01*
X183609762Y-94306933D01*
X183635172Y-94297841D01*
X183661350Y-94291284D01*
X183688045Y-94287324D01*
X183715000Y-94286000D01*
X185665000Y-94286000D01*
X185691955Y-94287324D01*
X185691955Y-94287324D01*
G37*
G36*
X185691955Y-92287324D02*
X185718650Y-92291284D01*
X185744828Y-92297841D01*
X185770238Y-92306933D01*
X185794634Y-92318472D01*
X185817782Y-92332346D01*
X185839458Y-92348422D01*
X185859454Y-92366546D01*
X185877578Y-92386542D01*
X185893654Y-92408218D01*
X185907528Y-92431366D01*
X185919067Y-92455762D01*
X185928159Y-92481172D01*
X185934716Y-92507350D01*
X185938676Y-92534045D01*
X185940000Y-92561000D01*
X185940000Y-93111000D01*
X185938676Y-93137955D01*
X185934716Y-93164650D01*
X185928159Y-93190828D01*
X185919067Y-93216238D01*
X185907528Y-93240634D01*
X185893654Y-93263782D01*
X185877578Y-93285458D01*
X185859454Y-93305454D01*
X185839458Y-93323578D01*
X185817782Y-93339654D01*
X185794634Y-93353528D01*
X185770238Y-93365067D01*
X185744828Y-93374159D01*
X185718650Y-93380716D01*
X185691955Y-93384676D01*
X185665000Y-93386000D01*
X183715000Y-93386000D01*
X183688045Y-93384676D01*
X183661350Y-93380716D01*
X183635172Y-93374159D01*
X183609762Y-93365067D01*
X183585366Y-93353528D01*
X183562218Y-93339654D01*
X183540542Y-93323578D01*
X183520546Y-93305454D01*
X183502422Y-93285458D01*
X183486346Y-93263782D01*
X183472472Y-93240634D01*
X183460933Y-93216238D01*
X183451841Y-93190828D01*
X183445284Y-93164650D01*
X183441324Y-93137955D01*
X183440000Y-93111000D01*
X183440000Y-92561000D01*
X183441324Y-92534045D01*
X183445284Y-92507350D01*
X183451841Y-92481172D01*
X183460933Y-92455762D01*
X183472472Y-92431366D01*
X183486346Y-92408218D01*
X183502422Y-92386542D01*
X183520546Y-92366546D01*
X183540542Y-92348422D01*
X183562218Y-92332346D01*
X183585366Y-92318472D01*
X183609762Y-92306933D01*
X183635172Y-92297841D01*
X183661350Y-92291284D01*
X183688045Y-92287324D01*
X183715000Y-92286000D01*
X185665000Y-92286000D01*
X185691955Y-92287324D01*
X185691955Y-92287324D01*
G37*
G36*
X185691955Y-90287324D02*
X185718650Y-90291284D01*
X185744828Y-90297841D01*
X185770238Y-90306933D01*
X185794634Y-90318472D01*
X185817782Y-90332346D01*
X185839458Y-90348422D01*
X185859454Y-90366546D01*
X185877578Y-90386542D01*
X185893654Y-90408218D01*
X185907528Y-90431366D01*
X185919067Y-90455762D01*
X185928159Y-90481172D01*
X185934716Y-90507350D01*
X185938676Y-90534045D01*
X185940000Y-90561000D01*
X185940000Y-91111000D01*
X185938676Y-91137955D01*
X185934716Y-91164650D01*
X185928159Y-91190828D01*
X185919067Y-91216238D01*
X185907528Y-91240634D01*
X185893654Y-91263782D01*
X185877578Y-91285458D01*
X185859454Y-91305454D01*
X185839458Y-91323578D01*
X185817782Y-91339654D01*
X185794634Y-91353528D01*
X185770238Y-91365067D01*
X185744828Y-91374159D01*
X185718650Y-91380716D01*
X185691955Y-91384676D01*
X185665000Y-91386000D01*
X183715000Y-91386000D01*
X183688045Y-91384676D01*
X183661350Y-91380716D01*
X183635172Y-91374159D01*
X183609762Y-91365067D01*
X183585366Y-91353528D01*
X183562218Y-91339654D01*
X183540542Y-91323578D01*
X183520546Y-91305454D01*
X183502422Y-91285458D01*
X183486346Y-91263782D01*
X183472472Y-91240634D01*
X183460933Y-91216238D01*
X183451841Y-91190828D01*
X183445284Y-91164650D01*
X183441324Y-91137955D01*
X183440000Y-91111000D01*
X183440000Y-90561000D01*
X183441324Y-90534045D01*
X183445284Y-90507350D01*
X183451841Y-90481172D01*
X183460933Y-90455762D01*
X183472472Y-90431366D01*
X183486346Y-90408218D01*
X183502422Y-90386542D01*
X183520546Y-90366546D01*
X183540542Y-90348422D01*
X183562218Y-90332346D01*
X183585366Y-90318472D01*
X183609762Y-90306933D01*
X183635172Y-90297841D01*
X183661350Y-90291284D01*
X183688045Y-90287324D01*
X183715000Y-90286000D01*
X185665000Y-90286000D01*
X185691955Y-90287324D01*
X185691955Y-90287324D01*
G37*
G36*
X185691955Y-88287324D02*
X185718650Y-88291284D01*
X185744828Y-88297841D01*
X185770238Y-88306933D01*
X185794634Y-88318472D01*
X185817782Y-88332346D01*
X185839458Y-88348422D01*
X185859454Y-88366546D01*
X185877578Y-88386542D01*
X185893654Y-88408218D01*
X185907528Y-88431366D01*
X185919067Y-88455762D01*
X185928159Y-88481172D01*
X185934716Y-88507350D01*
X185938676Y-88534045D01*
X185940000Y-88561000D01*
X185940000Y-89111000D01*
X185938676Y-89137955D01*
X185934716Y-89164650D01*
X185928159Y-89190828D01*
X185919067Y-89216238D01*
X185907528Y-89240634D01*
X185893654Y-89263782D01*
X185877578Y-89285458D01*
X185859454Y-89305454D01*
X185839458Y-89323578D01*
X185817782Y-89339654D01*
X185794634Y-89353528D01*
X185770238Y-89365067D01*
X185744828Y-89374159D01*
X185718650Y-89380716D01*
X185691955Y-89384676D01*
X185665000Y-89386000D01*
X183715000Y-89386000D01*
X183688045Y-89384676D01*
X183661350Y-89380716D01*
X183635172Y-89374159D01*
X183609762Y-89365067D01*
X183585366Y-89353528D01*
X183562218Y-89339654D01*
X183540542Y-89323578D01*
X183520546Y-89305454D01*
X183502422Y-89285458D01*
X183486346Y-89263782D01*
X183472472Y-89240634D01*
X183460933Y-89216238D01*
X183451841Y-89190828D01*
X183445284Y-89164650D01*
X183441324Y-89137955D01*
X183440000Y-89111000D01*
X183440000Y-88561000D01*
X183441324Y-88534045D01*
X183445284Y-88507350D01*
X183451841Y-88481172D01*
X183460933Y-88455762D01*
X183472472Y-88431366D01*
X183486346Y-88408218D01*
X183502422Y-88386542D01*
X183520546Y-88366546D01*
X183540542Y-88348422D01*
X183562218Y-88332346D01*
X183585366Y-88318472D01*
X183609762Y-88306933D01*
X183635172Y-88297841D01*
X183661350Y-88291284D01*
X183688045Y-88287324D01*
X183715000Y-88286000D01*
X185665000Y-88286000D01*
X185691955Y-88287324D01*
X185691955Y-88287324D01*
G37*
G36*
X185691955Y-86287324D02*
X185718650Y-86291284D01*
X185744828Y-86297841D01*
X185770238Y-86306933D01*
X185794634Y-86318472D01*
X185817782Y-86332346D01*
X185839458Y-86348422D01*
X185859454Y-86366546D01*
X185877578Y-86386542D01*
X185893654Y-86408218D01*
X185907528Y-86431366D01*
X185919067Y-86455762D01*
X185928159Y-86481172D01*
X185934716Y-86507350D01*
X185938676Y-86534045D01*
X185940000Y-86561000D01*
X185940000Y-87111000D01*
X185938676Y-87137955D01*
X185934716Y-87164650D01*
X185928159Y-87190828D01*
X185919067Y-87216238D01*
X185907528Y-87240634D01*
X185893654Y-87263782D01*
X185877578Y-87285458D01*
X185859454Y-87305454D01*
X185839458Y-87323578D01*
X185817782Y-87339654D01*
X185794634Y-87353528D01*
X185770238Y-87365067D01*
X185744828Y-87374159D01*
X185718650Y-87380716D01*
X185691955Y-87384676D01*
X185665000Y-87386000D01*
X183715000Y-87386000D01*
X183688045Y-87384676D01*
X183661350Y-87380716D01*
X183635172Y-87374159D01*
X183609762Y-87365067D01*
X183585366Y-87353528D01*
X183562218Y-87339654D01*
X183540542Y-87323578D01*
X183520546Y-87305454D01*
X183502422Y-87285458D01*
X183486346Y-87263782D01*
X183472472Y-87240634D01*
X183460933Y-87216238D01*
X183451841Y-87190828D01*
X183445284Y-87164650D01*
X183441324Y-87137955D01*
X183440000Y-87111000D01*
X183440000Y-86561000D01*
X183441324Y-86534045D01*
X183445284Y-86507350D01*
X183451841Y-86481172D01*
X183460933Y-86455762D01*
X183472472Y-86431366D01*
X183486346Y-86408218D01*
X183502422Y-86386542D01*
X183520546Y-86366546D01*
X183540542Y-86348422D01*
X183562218Y-86332346D01*
X183585366Y-86318472D01*
X183609762Y-86306933D01*
X183635172Y-86297841D01*
X183661350Y-86291284D01*
X183688045Y-86287324D01*
X183715000Y-86286000D01*
X185665000Y-86286000D01*
X185691955Y-86287324D01*
X185691955Y-86287324D01*
G37*
G36*
X185691955Y-84287324D02*
X185718650Y-84291284D01*
X185744828Y-84297841D01*
X185770238Y-84306933D01*
X185794634Y-84318472D01*
X185817782Y-84332346D01*
X185839458Y-84348422D01*
X185859454Y-84366546D01*
X185877578Y-84386542D01*
X185893654Y-84408218D01*
X185907528Y-84431366D01*
X185919067Y-84455762D01*
X185928159Y-84481172D01*
X185934716Y-84507350D01*
X185938676Y-84534045D01*
X185940000Y-84561000D01*
X185940000Y-85111000D01*
X185938676Y-85137955D01*
X185934716Y-85164650D01*
X185928159Y-85190828D01*
X185919067Y-85216238D01*
X185907528Y-85240634D01*
X185893654Y-85263782D01*
X185877578Y-85285458D01*
X185859454Y-85305454D01*
X185839458Y-85323578D01*
X185817782Y-85339654D01*
X185794634Y-85353528D01*
X185770238Y-85365067D01*
X185744828Y-85374159D01*
X185718650Y-85380716D01*
X185691955Y-85384676D01*
X185665000Y-85386000D01*
X183715000Y-85386000D01*
X183688045Y-85384676D01*
X183661350Y-85380716D01*
X183635172Y-85374159D01*
X183609762Y-85365067D01*
X183585366Y-85353528D01*
X183562218Y-85339654D01*
X183540542Y-85323578D01*
X183520546Y-85305454D01*
X183502422Y-85285458D01*
X183486346Y-85263782D01*
X183472472Y-85240634D01*
X183460933Y-85216238D01*
X183451841Y-85190828D01*
X183445284Y-85164650D01*
X183441324Y-85137955D01*
X183440000Y-85111000D01*
X183440000Y-84561000D01*
X183441324Y-84534045D01*
X183445284Y-84507350D01*
X183451841Y-84481172D01*
X183460933Y-84455762D01*
X183472472Y-84431366D01*
X183486346Y-84408218D01*
X183502422Y-84386542D01*
X183520546Y-84366546D01*
X183540542Y-84348422D01*
X183562218Y-84332346D01*
X183585366Y-84318472D01*
X183609762Y-84306933D01*
X183635172Y-84297841D01*
X183661350Y-84291284D01*
X183688045Y-84287324D01*
X183715000Y-84286000D01*
X185665000Y-84286000D01*
X185691955Y-84287324D01*
X185691955Y-84287324D01*
G37*
D12*
X197485000Y-98425000D03*
X187325000Y-98425000D03*
M02*
