G04 #@! TF.FileFunction,Copper,L1,Top,Signal*
%FSLAX46Y46*%
G04 Gerber Fmt 4.6, Leading zero omitted, Abs format (unit mm)*
G04 Created by KiCad (PCBNEW (2016-07-11 BZR 6975, Git 98ad509)-product) date Sat Aug 13 17:34:52 2016*
%MOMM*%
%LPD*%
G01*
G04 APERTURE LIST*
%ADD10C,0.100000*%
%ADD11C,1.800000*%
%ADD12R,1.597660X1.800860*%
%ADD13R,1.000000X1.600000*%
%ADD14R,0.650000X1.060000*%
%ADD15R,0.900000X1.700000*%
%ADD16C,0.800000*%
%ADD17C,0.250000*%
G04 APERTURE END LIST*
D10*
X201930000Y-75565000D02*
X205740000Y-79375000D01*
X194310000Y-75565000D02*
X201930000Y-75565000D01*
X194310000Y-75565000D02*
X182880000Y-75565000D01*
X205740000Y-99695000D02*
X205740000Y-79375000D01*
X205740000Y-99695000D02*
X204470000Y-100965000D01*
X179070000Y-79375000D02*
X179070000Y-99695000D01*
X180340000Y-100965000D02*
X204470000Y-100965000D01*
X179070000Y-99695000D02*
X180340000Y-100965000D01*
X182880000Y-75565000D02*
X179070000Y-79375000D01*
D11*
X180975000Y-81280000D03*
X180975000Y-83820000D03*
X180975000Y-86360000D03*
X180975000Y-88900000D03*
X180975000Y-91440000D03*
X180975000Y-93980000D03*
X180975000Y-96520000D03*
X180975000Y-99060000D03*
X203835000Y-99060000D03*
X203835000Y-96520000D03*
X203835000Y-93980000D03*
X203835000Y-91440000D03*
X203835000Y-88900000D03*
X203835000Y-86360000D03*
X203835000Y-83820000D03*
X203835000Y-81280000D03*
D12*
X194459860Y-84455000D03*
X191620140Y-84455000D03*
X194459860Y-86995000D03*
X191620140Y-86995000D03*
D13*
X191540000Y-90170000D03*
X194540000Y-90170000D03*
X197255000Y-90170000D03*
X200255000Y-90170000D03*
D14*
X191455000Y-95715000D03*
X192405000Y-95715000D03*
X193355000Y-95715000D03*
X193355000Y-93515000D03*
X191455000Y-93515000D03*
D15*
X187505000Y-84455000D03*
X184605000Y-84455000D03*
X184605000Y-86995000D03*
X187505000Y-86995000D03*
X184605000Y-89535000D03*
X187505000Y-89535000D03*
X184605000Y-92075000D03*
X187505000Y-92075000D03*
X197305000Y-92710000D03*
X200205000Y-92710000D03*
X197305000Y-84455000D03*
X200205000Y-84455000D03*
X197305000Y-86995000D03*
X200205000Y-86995000D03*
X199185000Y-98425000D03*
X195785000Y-98425000D03*
X185625000Y-98425000D03*
X189025000Y-98425000D03*
D16*
X188849000Y-84328000D03*
X201930000Y-97790000D03*
X194818000Y-94107000D03*
X194691000Y-96647000D03*
X192405000Y-97536000D03*
X188849000Y-86995000D03*
X188849000Y-89408000D03*
X194818000Y-95377000D03*
X187325000Y-94615000D03*
X190246000Y-93218000D03*
X186563000Y-93853000D03*
X195580000Y-92075000D03*
X193548000Y-97536000D03*
D17*
X187505000Y-84455000D02*
X188722000Y-84455000D01*
X188722000Y-84455000D02*
X188849000Y-84328000D01*
X187505000Y-84402000D02*
X187505000Y-84455000D01*
X201930000Y-97790000D02*
X199390000Y-97790000D01*
X199390000Y-97790000D02*
X199185000Y-98425000D01*
X203835000Y-81280000D02*
X203200000Y-81280000D01*
X194818000Y-94107000D02*
X195908000Y-94107000D01*
X195908000Y-94107000D02*
X197305000Y-92710000D01*
X194540000Y-90170000D02*
X194540000Y-93829000D01*
X194540000Y-93829000D02*
X194818000Y-94107000D01*
X195785000Y-97741000D02*
X194691000Y-96647000D01*
X194818000Y-94107000D02*
X194564000Y-93853000D01*
X194564000Y-93853000D02*
X194564000Y-93218000D01*
X195785000Y-98425000D02*
X195785000Y-97741000D01*
X194564000Y-93218000D02*
X194540000Y-93194000D01*
X194540000Y-93194000D02*
X194564000Y-93218000D01*
X189025000Y-98425000D02*
X191516000Y-98425000D01*
X191516000Y-98425000D02*
X192405000Y-97536000D01*
X195785000Y-98425000D02*
X193294000Y-98425000D01*
X193294000Y-98425000D02*
X192405000Y-97536000D01*
X192405000Y-95715000D02*
X192405000Y-97536000D01*
X189025000Y-98601000D02*
X189025000Y-98425000D01*
X197305000Y-92710000D02*
X197305000Y-92255000D01*
X197305000Y-92255000D02*
X199390000Y-90170000D01*
X199390000Y-90170000D02*
X200255000Y-90170000D01*
X191620140Y-86995000D02*
X191620140Y-87250140D01*
X191620140Y-87250140D02*
X194540000Y-90170000D01*
X191620140Y-84455000D02*
X191620140Y-86995000D01*
X187505000Y-86995000D02*
X188849000Y-86995000D01*
X187505000Y-86995000D02*
X187505000Y-87302000D01*
X187505000Y-89535000D02*
X188722000Y-89535000D01*
X188722000Y-89535000D02*
X188849000Y-89408000D01*
X187325000Y-88900000D02*
X187505000Y-89535000D01*
X195961000Y-96520000D02*
X203835000Y-96520000D01*
X194818000Y-95377000D02*
X195961000Y-96520000D01*
X203835000Y-96520000D02*
X203200000Y-96520000D01*
X203835000Y-96520000D02*
X203835000Y-96340000D01*
X203835000Y-96340000D02*
X200205000Y-92710000D01*
X203835000Y-90805000D02*
X200205000Y-87175000D01*
X200205000Y-87175000D02*
X200205000Y-86159000D01*
X185625000Y-98425000D02*
X185625000Y-96315000D01*
X185625000Y-96315000D02*
X187325000Y-94615000D01*
X187505000Y-92075000D02*
X187505000Y-94435000D01*
X187505000Y-94435000D02*
X187325000Y-94615000D01*
X204279500Y-88836500D02*
X200205000Y-84762000D01*
X200205000Y-84455000D02*
X200205000Y-84455000D01*
X200205000Y-84762000D02*
X200205000Y-84455000D01*
X190543000Y-93515000D02*
X191455000Y-93515000D01*
X190246000Y-93218000D02*
X190543000Y-93515000D01*
X186563000Y-93853000D02*
X184785000Y-92075000D01*
X184785000Y-92075000D02*
X184605000Y-92075000D01*
X184605000Y-92075000D02*
X184785000Y-92075000D01*
X197255000Y-90170000D02*
X197255000Y-90400000D01*
X197255000Y-90400000D02*
X195580000Y-92075000D01*
X191305000Y-93515000D02*
X191455000Y-93515000D01*
X184605000Y-89535000D02*
X184605000Y-92075000D01*
X184605000Y-86995000D02*
X184605000Y-89535000D01*
X184605000Y-84455000D02*
X184605000Y-86995000D01*
X197255000Y-90170000D02*
X196850000Y-90170000D01*
X197305000Y-84455000D02*
X194459860Y-84455000D01*
X194459860Y-86995000D02*
X197305000Y-86995000D01*
X193355000Y-97343000D02*
X193355000Y-95715000D01*
X193548000Y-97536000D02*
X193355000Y-97343000D01*
X191540000Y-90170000D02*
X191770000Y-90170000D01*
X191770000Y-90170000D02*
X192405000Y-90805000D01*
X192405000Y-90805000D02*
X192405000Y-94615000D01*
X191455000Y-95715000D02*
X191455000Y-94930000D01*
X193355000Y-94930000D02*
X193355000Y-95715000D01*
X193040000Y-94615000D02*
X193355000Y-94930000D01*
X191770000Y-94615000D02*
X192405000Y-94615000D01*
X192405000Y-94615000D02*
X193040000Y-94615000D01*
X191455000Y-94930000D02*
X191770000Y-94615000D01*
X191540000Y-90170000D02*
X191540000Y-90400000D01*
M02*
